<svg version="1.1" xmlns="http://www.w3.org/2000/svg" xmlns:xlink="http://www.w3.org/1999/xlink" width="48" height="48"><defs><linearGradient x1="15.2688" y1="12.23187" x2="60.41186" y2="63.4488" gradientUnits="userSpaceOnUse" id="color-1"><stop offset="0" stop-color="#000000" stop-opacity="0.3"></stop><stop offset="1" stop-color="#000000" stop-opacity="0"></stop></linearGradient><filter id="dropshadow-base"><feColorMatrix type="matrix" values="0 0 0 0 0  0 0 0 0 0  0 0 0 0 0  0 0 0 .8 0"></feColorMatrix> <feOffset dx="0" dy="1"></feOffset> <feGaussianBlur stdDeviation="1"></feGaussianBlur> <feComposite in="SourceGraphic"></feComposite></filter><filter id="dropshadow-banner" x="-10%" y="-10%" width="120%" height="130%"><feColorMatrix type="matrix" values="0 0 0 0 0  0 0 0 0 0  0 0 0 0 0  0 0 0 .4 0"></feColorMatrix> <feOffset dx="0" dy="1"></feOffset> <feGaussianBlur stdDeviation="0.5"></feGaussianBlur> <feComposite in="SourceGraphic"></feComposite></filter></defs><g fill="none" fill-rule="nonzero" stroke="none" stroke-width="none" stroke-linecap="butt" stroke-linejoin="miter" stroke-miterlimit="10" stroke-dasharray="" stroke-dashoffset="0" font-family="none" font-weight="none" font-size="none" text-anchor="none" style="mix-blend-mode: normal"><path d="M7,43c-1.10457,0 -2,-0.89543 -2,-2v-34c0,-1.10457 0.89543,-2 2,-2h34c1.10457,0 2,0.89543 2,2v34c0,1.10457 -0.89543,2 -2,2z" id="base 1 5 1" fill="#19181c" stroke-width="1"></path><path d="M15.37999,35.65695c-0.06869,-0.06869 -0.11118,-0.1636 -0.11118,-0.26843v-22.77703c0,-0.20966 0.16999,-0.37962 0.37962,-0.37962h16.70316c0.10483,0 0.19974,0.04249 0.26843,0.11118l10.37999,10.37999v18.27696c0,1.10457 -0.89543,2 -2,2h-18.27696z" fill="url(#color-1)" stroke-width="1"></path><path transform="translate(-4.24352,-4.24352) scale(1.17681,1.17681)" d="M27.60377,34h-10.70055c-0.17816,0 -0.32258,-0.14441 -0.32258,-0.32258v-19.35484c0,-0.17816 0.14445,-0.32258 0.32258,-0.32258h14.19355c0.17816,0 0.32258,0.14441 0.32258,0.32258v15.86195c0,0.17109 -0.06797,0.3352 -0.18898,0.45621l-3.17043,3.17031c-0.00085,0.00085 -0.0017,0.0017 -0.00256,0.00254c-0.12073,0.11939 -0.28376,0.1864 -0.45362,0.1864z" fill="none" stroke-width="0"></path><g id="Capa_1 2" stroke-width="1"><path d="M28.24096,35.76813h-12.59255c-0.20967,0 -0.37961,-0.16995 -0.37961,-0.37961v-22.77704c0,-0.20967 0.16999,-0.37961 0.37961,-0.37961h16.70316c0.20967,0 0.37961,0.16995 0.37961,0.37961v18.66656c0,0.20135 -0.07999,0.39446 -0.2224,0.53688l-3.731,3.73087c-0.14237,0.14237 -0.33553,0.22235 -0.53683,0.22235z" fill="#edebed"></path><path d="M19.06472,20.58356c0,-2.72567 2.20959,-4.93526 4.93526,-4.93526c2.72567,0 4.93526,2.20959 4.93526,4.93526c0,2.72567 -2.20959,4.93526 -4.93526,4.93526c-2.72567,0 -4.93526,-2.20959 -4.93526,-4.93526z" fill="#c4deff"></path><path d="M24.56944,20.58343h-0.75927c-0.83862,0 -1.51846,-0.67984 -1.51846,-1.51846v0c0,-0.83862 0.67984,-1.51846 1.51846,-1.51846h0.75923c0.83862,0 1.51846,0.67984 1.51846,1.51846v0c0.00005,0.83862 -0.67979,1.51846 -1.51841,1.51846z" fill="#4b3f4e"></path><path d="M28.17583,28.1758h-8.35165c-0.20985,0 -0.37961,-0.16999 -0.37961,-0.37961c0,-0.20962 0.16981,-0.37961 0.37961,-0.37961h8.35156c0.20985,0 0.37961,0.16999 0.37961,0.37961c0,0.20962 -0.16972,0.37961 -0.37952,0.37961z" fill="#867e88"></path><path d="M26.65732,30.07387h-5.31464c-0.20985,0 -0.37961,-0.16999 -0.37961,-0.37961c0,-0.20962 0.16981,-0.37961 0.37961,-0.37961h5.31464c0.20985,0 0.37961,0.16999 0.37961,0.37961c0,0.20962 -0.16976,0.37961 -0.37961,0.37961z" fill="#c9c6ca"></path><path d="M28.77779,35.54578l3.731,-3.73087c0.06472,-0.06472 0.1146,-0.14085 0.15188,-0.22254h-3.72567c-0.20962,0 -0.37961,0.16995 -0.37961,0.37961v3.72563c0.08164,-0.03733 0.15777,-0.08716 0.2224,-0.15184z" fill="#dbd9dc"></path><path d="M23.99998,25.51846c1.38064,0 2.62733,-0.56841 3.52299,-1.48219v-0.65626c0,-0.30004 -0.17671,-0.57195 -0.45087,-0.69381l-1.79119,-0.7961c-0.13708,-0.06096 -0.22543,-0.19689 -0.22543,-0.34688v-1.69355h-1.89807v1.69351c0,0.15004 -0.08835,0.28597 -0.22543,0.34693l-1.79119,0.7961c-0.27421,0.12186 -0.45087,0.39377 -0.45087,0.69381v0.85613c0.87585,0.79426 2.0346,1.28231 3.31006,1.28231z" fill="#f7d291"></path><path d="M23.99998,25.51846c1.38064,0 2.62733,-0.56841 3.52299,-1.48219v-0.65626c0,-0.30004 -0.17671,-0.57195 -0.45087,-0.69381l-1.48021,-0.65787l-0.99942,0.83283c-0.28156,0.23463 -0.69055,0.23463 -0.97211,0l-0.99942,-0.83283l-1.48021,0.65787c-0.27416,0.12186 -0.45087,0.39377 -0.45087,0.69381v0.85613c0.8759,0.79426 2.03465,1.28231 3.31011,1.28231z" fill="#c9c6ca"></path><path d="M23.15736,21.89213c0.28933,0.13336 0.6101,0.2098 0.94904,0.2098c0.33898,0 0.6597,-0.07645 0.94904,-0.2098v-1.68827h-1.89807v1.68827z" fill="#f0c382"></path><path d="M24.21603,17.93026c-0.32013,-0.02413 -0.61553,0.05902 -0.86877,0.20645v0.16903c0,0 -0.0644,0.70154 -0.59953,1.05196c-0.10237,0.06707 -0.15974,0.1853 -0.15974,0.30767v0.09359c0,0.79311 0.57981,1.50131 1.36933,1.57661c0.90569,0.08638 1.66758,-0.62353 1.66758,-1.51133v-0.28524c0.00005,-0.81343 -0.59783,-1.54756 -1.40887,-1.60874z" fill="#ffe1a0"></path><g fill="#b7b2b8"><path d="M23.62041,22.86116l-0.99942,-0.83283l-0.77348,0.34376l1.28682,1.07237c0.27232,0.22695 0.61755,0.35194 0.97211,0.35194c0.35456,0 0.69974,-0.12499 0.97211,-0.35194l1.28682,-1.07233l-0.77348,-0.34376l-0.99942,0.83283c-0.28152,0.23458 -0.6905,0.23458 -0.97207,-0.00005z"></path><path d="M27.52302,24.03627v-0.65626c0,-0.13878 -0.04123,-0.2697 -0.10899,-0.3844l-1.18706,1.18706c-0.14241,0.14237 -0.2224,0.33548 -0.2224,0.53688v0.37083c0.57167,-0.25472 1.08625,-0.61318 1.51846,-1.05412z"></path><path d="M20.79886,22.99562c-0.06776,0.11469 -0.10899,0.24561 -0.10899,0.3844v0.85613c0.44135,0.40021 0.95377,0.7214 1.51846,0.94182v-0.45841c0,-0.20139 -0.07999,-0.39451 -0.2224,-0.53688z"></path></g><path d="M23.95727,21.33553c0.90569,0.08638 1.66758,-0.62353 1.66758,-1.51133c0,0.64927 -0.54331,1.17162 -1.20012,1.13723c-0.61585,-0.03222 -1.07761,-0.585 -1.07761,-1.20168v-1.45405c0,0 -0.0644,0.70154 -0.59953,1.05196c-0.10237,0.06707 -0.15974,0.1853 -0.15974,0.30767v0.09359c0.00014,0.79311 0.57995,1.50136 1.36942,1.57661z" fill="#f7d291"></path><path d="M24.56944,17.54651h-0.75927c-0.3838,0 -0.73027,0.14715 -0.99763,0.38196c0.4779,0.90146 1.42473,1.51611 2.51608,1.51611c0.25315,0 0.49725,-0.03622 0.73087,-0.09824c0.01715,-0.09139 0.02836,-0.18503 0.02836,-0.28138c0.00005,-0.83862 -0.67975,-1.51846 -1.51841,-1.51846z" fill="#5d5360"></path><g fill="#000000" font-family="Roboto, sans-serif" font-weight="400" font-size="14" text-anchor="start"></g><g fill="#000000" font-family="Roboto, sans-serif" font-weight="400" font-size="14" text-anchor="start"></g><g fill="#000000" font-family="Roboto, sans-serif" font-weight="400" font-size="14" text-anchor="start"></g><g fill="#000000" font-family="Roboto, sans-serif" font-weight="400" font-size="14" text-anchor="start"></g><g fill="#000000" font-family="Roboto, sans-serif" font-weight="400" font-size="14" text-anchor="start"></g><g fill="#000000" font-family="Roboto, sans-serif" font-weight="400" font-size="14" text-anchor="start"></g><g fill="#000000" font-family="Roboto, sans-serif" font-weight="400" font-size="14" text-anchor="start"></g><g fill="#000000" font-family="Roboto, sans-serif" font-weight="400" font-size="14" text-anchor="start"></g><g fill="#000000" font-family="Roboto, sans-serif" font-weight="400" font-size="14" text-anchor="start"></g><g fill="#000000" font-family="Roboto, sans-serif" font-weight="400" font-size="14" text-anchor="start"></g><g fill="#000000" font-family="Roboto, sans-serif" font-weight="400" font-size="14" text-anchor="start"></g><g fill="#000000" font-family="Roboto, sans-serif" font-weight="400" font-size="14" text-anchor="start"></g><g fill="#000000" font-family="Roboto, sans-serif" font-weight="400" font-size="14" text-anchor="start"></g><g fill="#000000" font-family="Roboto, sans-serif" font-weight="400" font-size="14" text-anchor="start"></g><g fill="#000000" font-family="Roboto, sans-serif" font-weight="400" font-size="14" text-anchor="start"></g></g><path d="M2,24c0,-12.15026 9.84974,-22 22,-22c12.15026,0 22,9.84974 22,22c0,12.15026 -9.84974,22 -22,22c-12.15026,0 -22,-9.84974 -22,-22z" id="base 1 1 1" fill="none" stroke-width="1"></path><g id="Capa_1 1 1" fill="#000000" stroke-width="1" font-family="Roboto, sans-serif" font-weight="400" font-size="14" text-anchor="start"><g></g><g></g><g></g><g></g><g></g><g></g><g></g><g></g><g></g><g></g><g></g><g></g><g></g><g></g><g></g><g></g></g><rect x="2" y="2" width="44" height="22" fill="none" stroke-width="1"></rect><path d="M2,24v-22h44v22z" fill="none" stroke-width="1"></path><path d="M2,24v-22h44v22z" fill="none" stroke-width="1"></path><path d="M2,24v-22h44v22z" fill="none" stroke-width="1"></path><path d="M2,24v-22h44v22z" fill="none" stroke-width="1"></path></g></svg>